<?xml version="1.0" standalone="no"?><!DOCTYPE svg PUBLIC "-//W3C//DTD SVG 1.1//EN" "http://www.w3.org/Graphics/SVG/1.1/DTD/svg11.dtd"><svg t="1688121114232" class="icon" viewBox="0 0 1024 1024" version="1.1" xmlns="http://www.w3.org/2000/svg" p-id="1516" xmlns:xlink="http://www.w3.org/1999/xlink" width="200" height="200"><path d="M967.11 0H56.89C25.6 0 0 27.93 0 62.06v713.7c0 34.13 25.6 62.06 56.89 62.06h341.33v124.12H85.33c-14.22 0-28.44 15.52-28.44 31.03 0 15.52 14.22 31.03 28.44 31.03h853.33c14.22 0 28.44-15.51 28.44-31.03 0-15.51-14.22-31.03-28.44-31.03H625.78V837.82h341.33c31.29 0 56.89-27.93 56.89-62.06V62.06C1024 27.93 998.4 0 967.11 0zM562 934h-97.89v-99.18H562V934z m385-180H80V77h867v677zM259.46 422.85c-13.18-13.82-12.5-35.55 1.45-48.56 14.04-13.02 36.05-12.34 49.19 1.43l143.42 150.34 261.51-287.04c12.91-14.04 34.87-15.2 49.14-2.55 14.27 12.7 15.45 34.39 2.58 48.52L481.54 598.05c-6 6.55-13.97 10.31-22.21 11.17-2.13 0.4-4.29 0.59-6.46 0.59-9.24 0-18.48-3.62-25.32-10.78L259.46 422.85z" p-id="1517" fill="#2c2c2c"></path></svg>