<?xml version="1.0" standalone="no"?><!DOCTYPE svg PUBLIC "-//W3C//DTD SVG 1.1//EN" "http://www.w3.org/Graphics/SVG/1.1/DTD/svg11.dtd"><svg t="1688096828969" class="icon" viewBox="0 0 1024 1024" version="1.1" xmlns="http://www.w3.org/2000/svg" p-id="1778" xmlns:xlink="http://www.w3.org/1999/xlink" width="128" height="128"><path d="M850 944.2H172c-72 0-130.6-58.6-130.6-130.6V208.6C41.4 136.6 100 78 172 78h678c72 0 130.6 58.6 130.6 130.6v605c0 72-58.6 130.6-130.6 130.6zM172 137.8c-39 0-70.6 31.6-70.6 70.6v605c0 39 31.6 70.6 70.6 70.6h678c39 0 70.6-31.6 70.6-70.6V208.6c0-39-31.6-70.6-70.6-70.6H172z m518.6 265c0-16.6-13.4-30-30-30h-93.4c-16.6 0-30 13.4-30 30s13.4 30 30 30h93.4c16.6 0 30-13.4 30-30z m157 156.2c0-16.6-13.4-30-30-30H567.2c-16.6 0-30 13.4-30 30s13.4 30 30 30h250.6c16.4 0 29.8-13.4 29.8-30zM783 672c0-16.6-13.4-30-30-30h-185.8c-16.6 0-30 13.4-30 30s13.4 30 30 30h185.8c16.6 0 30-13.4 30-30z m-85.8-464c0-16.6-13.4-30-30-30H354.8c-16.6 0-30 13.4-30 30s13.4 30 30 30h312.4c16.6 0 30-13.4 30-30zM364 477h-98c-14.6 0-27.2-10.6-29.6-25l-18.2-108.2c-1.4-8.8 1-17.6 6.6-24.4 5.8-6.8 14-10.6 22.8-10.6H382c8.8 0 17.2 3.8 22.8 10.6 5.8 6.8 8.2 15.6 6.6 24.4l-18.2 108.2c-2 14.4-14.6 25-29.2 25z m-72.6-60h47.2l8-48.2h-63.4l8.2 48.2z m23.6 421.4c-48.4 0-95.4-32.8-116.8-65.2-3.2-4.8-5-10.6-5-16.4 0-92.2 39.2-233.4 41-239.4 3.6-13 15.4-22 28.8-22h103.8c13.4 0 25.2 9 28.8 22 1.6 6 41 147.2 41 239.4 0 7-2.4 13.8-7 19.2-17.8 21.6-65 62.4-114.6 62.4z m-61.6-91.4c14.2 16.2 39.6 31.6 61.6 31.6 19.4 0 45.4-17.4 61.4-33.2-2.4-63.2-22.6-149.8-32.8-189.8H286c-10 40.2-30.6 128-32.6 191.4z" p-id="1779"></path></svg>