<?xml version="1.0" standalone="no"?><!DOCTYPE svg PUBLIC "-//W3C//DTD SVG 1.1//EN" "http://www.w3.org/Graphics/SVG/1.1/DTD/svg11.dtd"><svg t="1688103684527" class="icon" viewBox="0 0 1024 1024" version="1.1" xmlns="http://www.w3.org/2000/svg" p-id="5383" xmlns:xlink="http://www.w3.org/1999/xlink" width="200" height="200"><path d="M511.999488 66.861804c-245.880013 0-445.138196 199.284789-445.138196 445.138196 0 245.852384 199.258183 445.137173 445.138196 445.137173s445.138196-199.284789 445.138196-445.137173C957.137685 266.146593 757.879502 66.861804 511.999488 66.861804zM511.999488 901.494898c-214.799134 0-389.495922-174.723394-389.495922-389.494898 0-214.771505 174.696788-389.495922 389.495922-389.495922 214.798111 0 389.495922 174.724417 389.495922 389.495922C901.49541 726.771505 726.797599 901.494898 511.999488 901.494898z" fill="#050001" p-id="5384"></path><path d="M596.92981 483.2277c49.556673-29.28907 83.191724-82.675978 83.191724-144.267754 0-92.727914-75.420737-168.17628-168.122045-168.17628-92.755544 0-168.17628 75.448366-168.17628 168.17628 0 61.591777 33.689287 114.979708 83.191724 144.267754-105.144712 35.700083-181.543729 134.297682-181.543729 251.368004 0 15.377222 12.389168 27.821649 27.821649 27.821649 15.32401 0 27.821649-12.443403 27.821649-27.821649 0-116.2834 94.548376-210.886011 210.886011-210.886011s210.886011 94.603635 210.886011 210.886011c0 15.377222 12.498662 27.821649 27.821649 27.821649 15.432481 0 27.821649-12.443403 27.821649-27.821649C778.527774 617.525382 702.128757 518.927783 596.92981 483.2277zM511.999488 451.467345c-62.000076 0-112.534006-50.480718-112.534006-112.5074 0-62.054311 50.53393-112.534006 112.534006-112.534006s112.479771 50.480718 112.479771 112.534006C624.479259 400.986627 573.999564 451.467345 511.999488 451.467345z" fill="#050001" p-id="5385"></path></svg>